<svg width="100" height="65" xmlns="http://www.w3.org/2000/svg" xmlns:xlink="http://www.w3.org/1999/xlink"><defs><path id="a" d="M0 .08h99.813v12.75H0z"/><path id="c" d="M0 .08h99.813v12.75H0z"/><path id="e" d="M0 .08h99.813v12.75H0z"/><path id="g" d="M0 .08h99.813v12.75H0z"/><path id="i" d="M0 .08h99.813v12.75H0z"/><path id="k" d="M0 .08h99.813v12.75H0z"/></defs><g fill="none" fill-rule="evenodd"><g transform="translate(0 52.012)"><mask id="b" fill="#fff"><use xlink:href="#a"/></mask><path fill="#FFF" mask="url(#b)" d="M5.342 12.845H4.208V6.71H1.134v6.134H0V.08h1.134v5.61h3.074V.082h1.134v12.764"/></g><g transform="translate(0 52.012)"><mask id="d" fill="#fff"><use xlink:href="#c"/></mask><path fill="#FFF" mask="url(#d)" d="M24.267 12.845h-4.192V.08h4.143v1.003h-3.01v4.763h2.741v1.02h-2.74v4.974h3.058v1.004"/></g><g transform="translate(0 52.012)"><mask id="f" fill="#fff"><use xlink:href="#e"/></mask><path d="M43.706 11.94a.892.892 0 01-.249.652.87.87 0 01-.648.253h-3.214a.897.897 0 01-.656-.253.876.876 0 01-.257-.653V8.701h1.134v3.14h2.756V8.8L39.05 4.542a1.482 1.482 0 01-.367-.97V.985c0-.266.086-.484.257-.652a.897.897 0 01.656-.253h3.214a.87.87 0 01.648.253.891.891 0 01.249.652v2.969h-1.134v-2.87h-2.756v2.691l3.54 4.258c.233.282.35.6.35.954v2.952" fill="#FFF" mask="url(#f)"/></g><g transform="translate(0 52.012)"><mask id="h" fill="#fff"><use xlink:href="#g"/></mask><path fill="#FFF" mask="url(#h)" d="M58.472 12.83h1.133V.08h-1.133z"/></g><g transform="translate(0 52.012)"><mask id="j" fill="#fff"><use xlink:href="#i"/></mask><path d="M75.562 11.841h3.124V1.084h-3.124V11.84zm4.257.098a.877.877 0 01-.256.653.897.897 0 01-.657.253h-3.572a.883.883 0 01-.653-.253.883.883 0 01-.252-.653V.986c0-.266.084-.484.252-.652a.882.882 0 01.653-.253h3.572c.266 0 .485.084.657.253a.876.876 0 01.256.652v10.953z" fill="#FFF" fill-rule="nonzero" mask="url(#j)"/></g><g transform="translate(0 52.012)"><mask id="l" fill="#fff"><use xlink:href="#k"/></mask><path d="M98.68 10.422V2.487c0-.419-.133-.758-.397-1.016-.263-.258-.604-.387-1.023-.387h-1.574V11.84h1.509c.44 0 .798-.126 1.072-.379.275-.253.412-.6.412-1.04zm1.133.115c0 .674-.222 1.227-.665 1.66-.443.431-1.002.648-1.676.648h-2.92V.08h2.92c.68 0 1.24.216 1.68.648.44.432.66.986.66 1.66v8.148z" fill="#FFF" fill-rule="nonzero" mask="url(#l)"/></g><path d="M71.556 15.91s-2.638 1.217-17.73.051c-3.37-.26-8.177-.06-12.483 1.256-3.067.937-11.305 4.514-13.33 13.113C41.37 14.416 68.232 18.942 71.556 15.91" fill="#84BF41"/><path d="M35.686 44.966h3.805v-8.949a14.874 14.874 0 01-3.805.774v8.175zm0-28.767a22.85 22.85 0 013.805-1.863V.511h-3.805v15.688zm26.748 28.767h3.805V23.872c-.914.2-2.127.423-3.805.578v20.516zm0-44.455v13.918c1.442.02 2.702-.003 3.805-.057V.511h-3.805z" fill="#FFF" fill-rule="nonzero"/><path d="M70.199 17.473c-8.18 2.697-24.308.5-36.73 9.756-2.528 1.884-4.308 3.56-5.3 4.566-.616.625-1.135 1.19-1.223 1.278v.002c-2.413 2.363-5.065 5.594-6.402 7.351 0 0 .992-1.083 2.781-1.563 1.235-1.47 2.93-3.426 4.038-4.544.115-.085 1.04-1.225 3.096-.51 0 0 3.84 1.842 8.993-1.6 4.05-2.704 6.494-6.074 14.323-8.785 7.064-2.445 19.649-2.308 22.82-10.325 0 0-1.545 2.775-6.396 4.374" fill="#FFF"/></g></svg>