<svg width="80" height="64" xmlns="http://www.w3.org/2000/svg"><g fill="none" fill-rule="evenodd"><path d="M72.499 21.982s-3.738 1.725-25.12.073c-4.777-.368-11.589-.085-17.689 1.78-4.346 1.328-16.018 6.395-18.888 18.58 18.927-22.549 56.986-16.137 61.697-20.433" fill="#84BF41"/><path d="M21.674 63.152h5.392v-12.68c-1.807.612-3.61.98-5.392 1.097v11.583zm0-40.76c2.07-1.264 4-2.115 5.392-2.64V.163h-5.392v22.23zm37.9 40.76h5.391V33.264a43.446 43.446 0 01-5.392.82v29.068zm0-62.989v19.722a88.049 88.049 0 005.391-.081V.164h-5.392z" fill="#292D78" fill-rule="nonzero"/><path d="M70.576 24.198c-11.59 3.821-34.442.709-52.042 13.823-3.583 2.67-6.105 5.043-7.51 6.469-.873.886-1.608 1.687-1.733 1.81v.004C5.871 49.65 2.114 54.229.22 56.719c0 0 1.406-1.534 3.941-2.214 1.75-2.082 4.152-4.854 5.721-6.44.163-.119 1.474-1.734 4.388-.721 0 0 5.44 2.61 12.742-2.267 5.738-3.832 9.2-8.607 20.294-12.448 10.01-3.465 27.84-3.27 32.334-14.63 0 0-2.19 3.932-9.063 6.199" fill="#292D78"/></g></svg>